PathFileType	4	(X/Y/Z)	/Users/itak/Documents/Research/Walk-IL/dataset/trc/00288_00010.trc
DataRate	CameraRate	NumFrames	NumMarkers	Units	OrigDataRate	OrigDataStartFrame	OrigNumFrames
100.000000	100.000000	4	53	mm	100.000000	250	669
Frame#	Time	RPSI			LPSI			L3			STRN			T10			C7			CLAV			RBAK			LBAK			LSHO			LUPA			LAEL			LAOL			LWTS			LWPS			LFRA			LHPS			LHTS			RSHO			RUPA			RAEL			RAOL			RWTS			RWPS			RFRA			RIFD			RHPS			RBHD			LFHD			RFHD			LBHD			RHIP			RASI			LASI			LKNE			LTHI			LANK			LTIP			LTOE			LMT1			LMT5			LHEE			RKNE			RTHI			RANK			RTIP			RTOE			RMT1			RMT5			RHEE			LIFD			RHTS			LHIP			
		X1	Y1	Z1	X2	Y2	Z2	X3	Y3	Z3	X4	Y4	Z4	X5	Y5	Z5	X6	Y6	Z6	X7	Y7	Z7	X8	Y8	Z8	X9	Y9	Z9	X10	Y10	Z10	X11	Y11	Z11	X12	Y12	Z12	X13	Y13	Z13	X14	Y14	Z14	X15	Y15	Z15	X16	Y16	Z16	X17	Y17	Z17	X18	Y18	Z18	X19	Y19	Z19	X20	Y20	Z20	X21	Y21	Z21	X22	Y22	Z22	X23	Y23	Z23	X24	Y24	Z24	X25	Y25	Z25	X26	Y26	Z26	X27	Y27	Z27	X28	Y28	Z28	X29	Y29	Z29	X30	Y30	Z30	X31	Y31	Z31	X32	Y32	Z32	X33	Y33	Z33	X34	Y34	Z34	X35	Y35	Z35	X36	Y36	Z36	X37	Y37	Z37	X38	Y38	Z38	X39	Y39	Z39	X40	Y40	Z40	X41	Y41	Z41	X42	Y42	Z42	X43	Y43	Z43	X44	Y44	Z44	X45	Y45	Z45	X46	Y46	Z46	X47	Y47	Z47	X48	Y48	Z48	X49	Y49	Z49	X50	Y50	Z50	X51	Y51	Z51	X52	Y52	Z52	X53	Y53	Z53	

251	2.5	-251.5305786132812	979.8031616210938	-153.1583557128906	-365.3341674804688	978.0993041992188	-286.5984497070312	-297.7773132324219	1044.2333984375	-233.9954986572266	-122.5679931640625	1228.609008789062	-398.3731079101562	-315.2077941894531	1160.951293945312	-214.6168060302734	-289.1931762695312	1406.69580078125	-246.9443206787109	-168.8624572753906	1328.123046875	-351.9535827636719	-278.223388671875	1265.862670898438	-159.0512390136719	-369.6842651367188	1377.294189453125	-315.0796508789062	-337.1080627441406	1389.976318359375	-414.284423828125	-418.1622924804688	1278.9326171875	-447.4018249511719	-445.4855346679688	1077.995849609375	-462.3685607910156	-437.5762634277344	1062.032470703125	-376.9727478027344	-377.6478271484375	854.0807495117188	-506.4509887695312	-449.4803466796875	848.5594482421875	-517.2215576171875	-453.4331970214844	975.1326293945312	-482.0133361816406	-453.6368713378906	760.4850463867188	-521.6058349609375	-389.0835876464844	756.3444213867188	-539.536376953125	-133.4498138427734	1377.482543945312	-175.0197601318359	-94.09908294677734	1316.464965820312	-125.417106628418	-52.44875717163086	1054.182739257812	-84.34498596191406	-142.7885589599609	1043.256469726562	-110.9339981079102	-28.93185234069824	870.50341796875	-250.8375549316406	15.20190906524658	848.3759765625	-181.3607330322266	-23.73560333251953	992.1142578125	-112.8994522094727	-15.61689949035645	693.873046875	-306.7688903808594	31.39578628540039	748.010009765625	-234.9882507324219	-239.5318603515625	1557.766967773438	-196.8165588378906	-118.5623779296875	1602.31298828125	-366.6683349609375	-86.79840850830078	1583.80078125	-281.0587463378906	-290.6105651855469	1575.942993164062	-334.6003112792969	-109.8057632446289	920.7041625976562	-143.8403472900391	-71.44085693359375	929.6895141601562	-275.9188537597656	-241.7057189941406	937.7796020507812	-462.1831665039062	-261.8277587890625	504.1665954589844	-577.4046630859375	-301.6530151367188	638.5993041992188	-537.411865234375	-520.6685180664062	156.0565490722656	-453.221923828125	-389.3606262207031	319.9643249511719	-532.2796020507812	-355.2725524902344	44.41082763671875	-524.7298583984375	-382.7503051757812	57.67219161987305	-448.0424194335938	-451.3161010742188	92.79708099365234	-530.5101928710938	-517.65869140625	166.2380981445312	-379.6285705566406	-189.0329742431641	456.4995727539062	-270.8736572265625	-96.55033874511719	706.1171875	-215.7570190429688	-336.2756042480469	39.10377502441406	-303.7852172851562	-223.7381439208984	339.5361633300781	-308.3966064453125	-290.0715942382812	41.25467300415039	-502.1357727050781	-350.8637084960938	37.51920318603516	-469.5461730957031	-267.1767578125	32.4229850769043	-385.8805236816406	-404.9401550292969	36.92188262939453	-283.7129211425781	-396.9480285644531	669.6618041992188	-517.8077392578125	7.070597648620605	765.6471557617188	-299.4472351074219	-377.1704406738281	934.7240600585938	-405.014892578125	
252	2.51	-249.9539337158203	980.154541015625	-160.410888671875	-359.8724670410156	978.6388549804688	-297.016845703125	-293.2701110839844	1044.388549804688	-241.7856292724609	-114.2805023193359	1228.8115234375	-401.5175476074219	-310.3149719238281	1160.87158203125	-221.9649505615234	-284.2578125	1406.736206054688	-253.7233734130859	-161.8061828613281	1328.345092773438	-356.2818908691406	-274.5070495605469	1266.1572265625	-165.4276428222656	-363.3447265625	1376.934448242188	-323.1553344726562	-329.2562561035156	1389.579711914062	-421.8829345703125	-409.9429321289062	1278.56787109375	-455.8614501953125	-437.594970703125	1077.647338867188	-469.0258178710938	-431.2183227539062	1062.704345703125	-383.3596801757812	-373.5455932617188	850.5477294921875	-505.4638061523438	-445.2402954101562	846.2344360351562	-517.6463012695312	-447.0909729003906	974.1826782226562	-486.4522094726562	-451.4693298339844	758.106201171875	-518.9028930664062	-386.5356750488281	751.7008666992188	-535.0942993164062	-129.5226745605469	1377.851806640625	-179.2036895751953	-90.65773773193359	1316.885498046875	-129.1133575439453	-45.67235946655273	1054.644653320312	-88.37492370605469	-135.6315155029297	1042.955078125	-115.682991027832	-20.12091255187988	875.8005981445312	-260.4799194335938	24.63291931152344	852.6893920898438	-191.8035430908203	-16.0314769744873	993.5279541015625	-118.565071105957	-5.33055591583252	700.2811889648438	-319.8524169921875	41.71709442138672	753.7233276367188	-247.6697692871094	-235.3733673095703	1558.185180664062	-203.3913879394531	-111.9221420288086	1602.223876953125	-371.5934753417969	-81.44537353515625	1584.2255859375	-285.43896484375	-284.4009704589844	1575.570434570312	-342.0900573730469	-108.6583633422852	920.8699951171875	-146.4214172363281	-66.16307830810547	929.6517944335938	-277.5940856933594	-231.2215576171875	938.2673950195312	-468.6791076660156	-246.7827758789062	505.5260009765625	-585.0535888671875	-288.2892456054688	639.6238403320312	-546.4141235351562	-499.5708618164062	145.6761322021484	-483.7171936035156	-371.1888732910156	316.8937072753906	-550.6824340820312	-327.4795532226562	43.56046676635742	-552.6111450195312	-358.5777282714844	52.16323852539062	-476.8399963378906	-424.7062072753906	88.67841339111328	-560.6405639648438	-500.3729248046875	152.7012634277344	-409.7333374023438	-188.5960998535156	456.3879699707031	-270.9057312011719	-95.23699951171875	705.5847778320312	-216.6102752685547	-336.3735961914062	39.18468856811523	-303.8246765136719	-223.4140014648438	339.3585510253906	-308.30029296875	-290.1122131347656	41.24987411499023	-502.0863037109375	-350.9783325195312	37.36016845703125	-469.5544128417969	-267.2718200683594	32.51069259643555	-385.8984985351562	-405.0647277832031	37.06703186035156	-283.7742309570312	-396.9954833984375	666.180419921875	-510.1423645019531	16.53496170043945	772.2550659179688	-311.5683898925781	-368.2361755371094	935.2398071289062	-415.653564453125	
253	2.52	-248.1755828857422	980.4091796875	-167.7965240478516	-354.2402038574219	979.1198120117188	-307.4153442382812	-288.6797485351562	1044.568725585938	-249.5603942871094	-105.9132385253906	1228.922485351562	-404.5621032714844	-305.2306213378906	1160.746826171875	-229.3650817871094	-279.0907897949219	1406.71923828125	-260.4601135253906	-154.6351623535156	1328.438598632812	-360.533447265625	-270.6951904296875	1266.3642578125	-171.856689453125	-356.8265686035156	1376.560791015625	-331.1856994628906	-321.1951904296875	1389.118774414062	-429.4056091308594	-401.5864562988281	1278.196533203125	-464.1752319335938	-429.83837890625	1077.34326171875	-475.3096923828125	-424.7665405273438	1063.42041015625	-389.4260559082031	-369.7122497558594	847.6185302734375	-504.6719665527344	-441.1454772949219	844.2212524414062	-518.0299072265625	-440.8877868652344	973.4468383789062	-490.6607971191406	-449.2599182128906	756.14599609375	-516.1248779296875	-384.1459655761719	747.7243041992188	-530.8546142578125	-125.5174789428711	1378.124755859375	-183.3181762695312	-87.19085693359375	1317.234497070312	-132.6832580566406	-39.04673385620117	1055.031860351562	-92.21982574462891	-128.539306640625	1042.5849609375	-120.4872665405273	-11.03573226928711	881.4119873046875	-269.8525085449219	34.01359939575195	857.1497192382812	-201.8800811767578	-8.445586204528809	994.9739379882812	-123.972526550293	5.048741340637207	707.0857543945312	-332.7339477539062	51.92903137207031	759.66455078125	-259.9481811523438	-231.1035308837891	1558.46630859375	-209.9449462890625	-105.2409591674805	1602.120971679688	-376.4480285644531	-76.04817962646484	1584.64501953125	-289.7657775878906	-278.0973510742188	1575.063598632812	-349.5111389160156	-107.4994583129883	920.923095703125	-149.2728118896484	-60.93032836914062	929.5221557617188	-279.4196166992188	-220.7748870849609	938.7073974609375	-474.9638977050781	-231.9493255615234	506.5020141601562	-591.9757080078125	-275.0553894042969	640.3217163085938	-554.841796875	-476.3252563476562	135.2657775878906	-513.2752685546875	-352.0350341796875	313.5064697265625	-568.2940063476562	-297.6241149902344	43.00287628173828	-578.1158447265625	-332.3166198730469	47.13220977783203	-503.7324829101562	-395.9024963378906	84.60267639160156	-588.9157104492188	-480.9541625976562	139.3003234863281	-439.2266235351562	-188.0930023193359	456.2475891113281	-271.3030700683594	-93.93252563476562	705.0372924804688	-217.7668609619141	-336.4630737304688	39.27974319458008	-303.8743286132812	-222.9655303955078	339.1408081054688	-308.4472351074219	-290.1457824707031	41.24671173095703	-502.0484619140625	-351.0320739746094	37.27249145507812	-469.5516357421875	-267.3631896972656	32.59231948852539	-385.9255981445312	-405.1886901855469	37.21435546875	-283.8285827636719	-396.7879943847656	663.5394287109375	-502.6552734375	26.25144195556641	779.183349609375	-323.3615417480469	-359.1716613769531	935.712890625	-426.187744140625	
254	2.53	-246.1673431396484	980.5597534179688	-175.2874298095703	-348.4357299804688	979.5164794921875	-317.7388610839844	-283.9906005859375	1044.7822265625	-257.2874755859375	-97.48538208007812	1228.926635742188	-407.5268249511719	-299.9868774414062	1160.589965820312	-236.7906494140625	-273.66552734375	1406.6396484375	-267.1535034179688	-147.3593292236328	1328.389038085938	-364.7198791503906	-266.7709350585938	1266.480224609375	-178.3280639648438	-350.1270446777344	1376.1787109375	-339.1661682128906	-312.9186401367188	1388.603759765625	-436.8482055664062	-393.1146545410156	1277.837768554688	-472.3363037109375	-422.2608337402344	1077.078125	-481.2454833984375	-418.2344665527344	1064.201416015625	-395.1852111816406	-366.0525207519531	845.222900390625	-504.0765380859375	-437.1333312988281	842.5277709960938	-518.4297485351562	-434.7990112304688	972.9113159179688	-494.6660766601562	-446.9803466796875	754.6110229492188	-513.3787231445312	-381.8271484375	744.38720703125	-526.9033813476562	-121.4209747314453	1378.286499023438	-187.3709411621094	-83.68138885498047	1317.48583984375	-136.1556091308594	-32.54177856445312	1055.363037109375	-95.93597412109375	-121.5337448120117	1042.132568359375	-125.2858428955078	-1.751388311386108	887.3232421875	-278.9069213867188	43.37063980102539	861.730224609375	-211.5893096923828	-0.9575322866439819	996.4722900390625	-129.1852874755859	15.53807258605957	714.3607177734375	-345.5397338867188	62.06819534301758	765.8543701171875	-271.9041137695312	-226.706298828125	1558.586303710938	-216.4891204833984	-98.51144409179688	1602.002685546875	-381.239501953125	-70.59329986572266	1585.045654296875	-294.0482177734375	-271.693359375	1574.4150390625	-356.85498046875	-106.2590942382812	920.8314819335938	-152.4117126464844	-55.76852035522461	929.2874755859375	-281.4456176757812	-210.39599609375	939.0850830078125	-481.0584106445312	-217.3231201171875	507.1245727539062	-598.294677734375	-261.9901733398438	640.7024536132812	-562.74365234375	-450.9329223632812	125.0017242431641	-541.6522827148438	-331.8219299316406	309.8799133300781	-585.0701293945312	-265.8583374023438	42.82857131958008	-601.0647583007812	-304.075927734375	42.67670440673828	-528.4798583984375	-365.0072631835938	80.67775726318359	-615.0978393554688	-459.3004455566406	126.2109603881836	-467.8295288085938	-187.4408264160156	456.0592041015625	-272.0501098632812	-92.56873321533203	704.4686889648438	-219.2218475341797	-336.5438232421875	39.38732147216797	-303.93212890625	-222.355712890625	338.8753662109375	-308.8617553710938	-290.1653442382812	41.24196243286133	-502.0337219238281	-351.0102844238281	37.27651977539062	-469.5461730957031	-267.4456176757812	32.65623474121094	-385.9619140625	-405.3012084960938	37.36569213867188	-283.8764038085938	-396.3338928222656	661.6708984375	-495.4961547851562	36.19210815429688	786.5069580078125	-334.8749694824219	-349.9942016601562	936.1502075195312	-436.5869750976562	
